# Blender 4.0.0
# www.blender.org
mtllib LuceTeeth.mtl
o LuceTeeth
v 0.020589 1.508049 0.101371
v 0.020589 1.498594 0.101371
v 0.000000 1.508049 0.107525
v 0.000000 1.498594 0.107525
v -0.020589 1.508049 0.101371
v -0.020589 1.498594 0.101371
vn -0.2864 -0.0000 -0.9581
vn -0.0000 -0.0000 -1.0000
vn 0.2864 -0.0000 -0.9581
vt 1.000000 0.000000
vt 0.500000 1.000000
vt 0.500000 0.000000
vt 1.000000 1.000000
s 1
usemtl Mouth
f 1/1/1 4/2/2 3/3/2
f 4/2/2 5/1/3 3/3/2
f 1/1/1 2/4/1 4/2/2
f 4/2/2 6/4/3 5/1/3
